<?xml version="1.0" encoding="UTF-8" standalone="no"?>
<!DOCTYPE svg PUBLIC "-//W3C//DTD SVG 1.1//EN"
 "http://www.w3.org/Graphics/SVG/1.1/DTD/svg11.dtd">
<!-- Generated by graphviz version 5.0.1 (20220820.1526)
 -->
<!-- Pages: 1 -->
<svg width="8351pt" height="404pt"
 viewBox="0.00 0.00 8350.74 404.00" xmlns="http://www.w3.org/2000/svg" xmlns:xlink="http://www.w3.org/1999/xlink">
<g id="graph0" class="graph" transform="scale(1 1) rotate(0) translate(4 400)">
<polygon fill="white" stroke="none" points="-4,4 -4,-400 8346.74,-400 8346.74,4 -4,4"/>
<!-- [root] aws_s3_bucket.bucket_validated_conditions (orphan) -->
<g id="node1" class="node">
<title>[root] aws_s3_bucket.bucket_validated_conditions (orphan)</title>
<polygon fill="none" stroke="black" points="3248.35,-108 2990.35,-108 2990.35,-72 3248.35,-72 3248.35,-108"/>
<text text-anchor="middle" x="3119.35" y="-86.3" font-family="Times,serif" font-size="14.00">aws_s3_bucket.bucket_validated_conditions</text>
</g>
<!-- [root] provider[&quot;registry.terraform.io/hashicorp/aws&quot;] -->
<g id="node13" class="node">
<title>[root] provider[&quot;registry.terraform.io/hashicorp/aws&quot;]</title>
<polygon fill="none" stroke="black" points="2998.35,-36 2745.82,-18 2998.35,0 3250.89,-18 2998.35,-36"/>
<text text-anchor="middle" x="2998.35" y="-14.3" font-family="Times,serif" font-size="14.00">provider[&quot;registry.terraform.io/hashicorp/aws&quot;]</text>
</g>
<!-- [root] aws_s3_bucket.bucket_validated_conditions (orphan)&#45;&gt;[root] provider[&quot;registry.terraform.io/hashicorp/aws&quot;] -->
<g id="edge1" class="edge">
<title>[root] aws_s3_bucket.bucket_validated_conditions (orphan)&#45;&gt;[root] provider[&quot;registry.terraform.io/hashicorp/aws&quot;]</title>
<path fill="none" stroke="black" d="M3089.75,-71.88C3072.83,-62.09 3051.5,-49.75 3033.71,-39.45"/>
<polygon fill="black" stroke="black" points="3035.17,-36.26 3024.76,-34.28 3031.67,-42.32 3035.17,-36.26"/>
</g>
<!-- [root] aws_s3_bucket.chained_dependent_bucket (expand) -->
<g id="node2" class="node">
<title>[root] aws_s3_bucket.chained_dependent_bucket (expand)</title>
<polygon fill="none" stroke="black" points="3122.35,-252 2872.35,-252 2872.35,-216 3122.35,-216 3122.35,-252"/>
<text text-anchor="middle" x="2997.35" y="-230.3" font-family="Times,serif" font-size="14.00">aws_s3_bucket.chained_dependent_bucket</text>
</g>
<!-- [root] aws_s3_bucket.dependent_bucket (expand) -->
<g id="node3" class="node">
<title>[root] aws_s3_bucket.dependent_bucket (expand)</title>
<polygon fill="none" stroke="black" points="2977.85,-180 2776.85,-180 2776.85,-144 2977.85,-144 2977.85,-180"/>
<text text-anchor="middle" x="2877.35" y="-158.3" font-family="Times,serif" font-size="14.00">aws_s3_bucket.dependent_bucket</text>
</g>
<!-- [root] aws_s3_bucket.chained_dependent_bucket (expand)&#45;&gt;[root] aws_s3_bucket.dependent_bucket (expand) -->
<g id="edge2" class="edge">
<title>[root] aws_s3_bucket.chained_dependent_bucket (expand)&#45;&gt;[root] aws_s3_bucket.dependent_bucket (expand)</title>
<path fill="none" stroke="black" d="M2968,-215.88C2952.31,-206.72 2932.8,-195.34 2915.9,-185.48"/>
<polygon fill="black" stroke="black" points="2917.22,-182.21 2906.82,-180.19 2913.7,-188.25 2917.22,-182.21"/>
</g>
<!-- [root] aws_s3_bucket.simple_bucket (expand) -->
<g id="node5" class="node">
<title>[root] aws_s3_bucket.simple_bucket (expand)</title>
<polygon fill="none" stroke="black" points="2764.35,-108 2582.35,-108 2582.35,-72 2764.35,-72 2764.35,-108"/>
<text text-anchor="middle" x="2673.35" y="-86.3" font-family="Times,serif" font-size="14.00">aws_s3_bucket.simple_bucket</text>
</g>
<!-- [root] aws_s3_bucket.dependent_bucket (expand)&#45;&gt;[root] aws_s3_bucket.simple_bucket (expand) -->
<g id="edge3" class="edge">
<title>[root] aws_s3_bucket.dependent_bucket (expand)&#45;&gt;[root] aws_s3_bucket.simple_bucket (expand)</title>
<path fill="none" stroke="black" d="M2827.71,-143.97C2799.08,-134.14 2762.91,-121.73 2732.77,-111.39"/>
<polygon fill="black" stroke="black" points="2733.81,-108.05 2723.22,-108.11 2731.54,-114.67 2733.81,-108.05"/>
</g>
<!-- [root] data.aws_caller_identity.current (expand) -->
<g id="node7" class="node">
<title>[root] data.aws_caller_identity.current (expand)</title>
<polygon fill="none" stroke="black" points="2972.35,-108 2782.35,-108 2782.35,-72 2972.35,-72 2972.35,-108"/>
<text text-anchor="middle" x="2877.35" y="-86.3" font-family="Times,serif" font-size="14.00">data.aws_caller_identity.current</text>
</g>
<!-- [root] aws_s3_bucket.dependent_bucket (expand)&#45;&gt;[root] data.aws_caller_identity.current (expand) -->
<g id="edge4" class="edge">
<title>[root] aws_s3_bucket.dependent_bucket (expand)&#45;&gt;[root] data.aws_caller_identity.current (expand)</title>
<path fill="none" stroke="black" d="M2877.35,-143.7C2877.35,-135.98 2877.35,-126.71 2877.35,-118.11"/>
<polygon fill="black" stroke="black" points="2880.85,-118.1 2877.35,-108.1 2873.85,-118.1 2880.85,-118.1"/>
</g>
<!-- [root] aws_s3_bucket.independent_bucket (expand) -->
<g id="node4" class="node">
<title>[root] aws_s3_bucket.independent_bucket (expand)</title>
<polygon fill="none" stroke="black" points="3208.35,-180 2996.35,-180 2996.35,-144 3208.35,-144 3208.35,-180"/>
<text text-anchor="middle" x="3102.35" y="-158.3" font-family="Times,serif" font-size="14.00">aws_s3_bucket.independent_bucket</text>
</g>
<!-- [root] aws_s3_bucket.independent_bucket (expand)&#45;&gt;[root] data.aws_caller_identity.current (expand) -->
<g id="edge5" class="edge">
<title>[root] aws_s3_bucket.independent_bucket (expand)&#45;&gt;[root] data.aws_caller_identity.current (expand)</title>
<path fill="none" stroke="black" d="M3047.6,-143.97C3015.75,-134.06 2975.43,-121.51 2942.03,-111.12"/>
<polygon fill="black" stroke="black" points="2942.94,-107.74 2932.35,-108.11 2940.86,-114.42 2942.94,-107.74"/>
</g>
<!-- [root] aws_s3_bucket.simple_bucket (expand)&#45;&gt;[root] provider[&quot;registry.terraform.io/hashicorp/aws&quot;] -->
<g id="edge6" class="edge">
<title>[root] aws_s3_bucket.simple_bucket (expand)&#45;&gt;[root] provider[&quot;registry.terraform.io/hashicorp/aws&quot;]</title>
<path fill="none" stroke="black" d="M2752.44,-71.97C2806.34,-60.36 2877.04,-45.13 2928.8,-33.98"/>
<polygon fill="black" stroke="black" points="2929.84,-37.34 2938.88,-31.81 2928.37,-30.49 2929.84,-37.34"/>
</g>
<!-- [root] data.aws_availability_zones.available (expand) -->
<g id="node6" class="node">
<title>[root] data.aws_availability_zones.available (expand)</title>
<polygon fill="none" stroke="black" points="3487.85,-108 3266.85,-108 3266.85,-72 3487.85,-72 3487.85,-108"/>
<text text-anchor="middle" x="3377.35" y="-86.3" font-family="Times,serif" font-size="14.00">data.aws_availability_zones.available</text>
</g>
<!-- [root] data.aws_availability_zones.available (expand)&#45;&gt;[root] provider[&quot;registry.terraform.io/hashicorp/aws&quot;] -->
<g id="edge7" class="edge">
<title>[root] data.aws_availability_zones.available (expand)&#45;&gt;[root] provider[&quot;registry.terraform.io/hashicorp/aws&quot;]</title>
<path fill="none" stroke="black" d="M3285.12,-71.97C3220.68,-60.06 3135.64,-44.36 3074.93,-33.14"/>
<polygon fill="black" stroke="black" points="3075.5,-29.69 3065.03,-31.31 3074.23,-36.57 3075.5,-29.69"/>
</g>
<!-- [root] data.aws_caller_identity.current (expand)&#45;&gt;[root] provider[&quot;registry.terraform.io/hashicorp/aws&quot;] -->
<g id="edge8" class="edge">
<title>[root] data.aws_caller_identity.current (expand)&#45;&gt;[root] provider[&quot;registry.terraform.io/hashicorp/aws&quot;]</title>
<path fill="none" stroke="black" d="M2906.95,-71.88C2923.87,-62.09 2945.2,-49.75 2963,-39.45"/>
<polygon fill="black" stroke="black" points="2965.04,-42.32 2971.94,-34.28 2961.53,-36.26 2965.04,-42.32"/>
</g>
<!-- [root] data.null_data_source.example (expand) -->
<g id="node8" class="node">
<title>[root] data.null_data_source.example (expand)</title>
<polygon fill="none" stroke="black" points="1245.85,-252 1060.85,-252 1060.85,-216 1245.85,-216 1245.85,-252"/>
<text text-anchor="middle" x="1153.35" y="-230.3" font-family="Times,serif" font-size="14.00">data.null_data_source.example</text>
</g>
<!-- [root] provider[&quot;registry.terraform.io/hashicorp/null&quot;] -->
<g id="node14" class="node">
<title>[root] provider[&quot;registry.terraform.io/hashicorp/null&quot;]</title>
<polygon fill="none" stroke="black" points="1153.35,-180 900.82,-162 1153.35,-144 1405.89,-162 1153.35,-180"/>
<text text-anchor="middle" x="1153.35" y="-158.3" font-family="Times,serif" font-size="14.00">provider[&quot;registry.terraform.io/hashicorp/null&quot;]</text>
</g>
<!-- [root] data.null_data_source.example (expand)&#45;&gt;[root] provider[&quot;registry.terraform.io/hashicorp/null&quot;] -->
<g id="edge9" class="edge">
<title>[root] data.null_data_source.example (expand)&#45;&gt;[root] provider[&quot;registry.terraform.io/hashicorp/null&quot;]</title>
<path fill="none" stroke="black" d="M1153.35,-215.7C1153.35,-207.98 1153.35,-198.71 1153.35,-190.11"/>
<polygon fill="black" stroke="black" points="1156.85,-190.1 1153.35,-180.1 1149.85,-190.1 1156.85,-190.1"/>
</g>
<!-- [root] output.aws_caller_info -->
<g id="node9" class="node">
<title>[root] output.aws_caller_info</title>
<polygon fill="none" stroke="black" points="2752.85,-180 2617.85,-180 2617.85,-144 2758.85,-144 2758.85,-174 2752.85,-180"/>
<polyline fill="none" stroke="black" points="2752.85,-180 2752.85,-174"/>
<polyline fill="none" stroke="black" points="2758.85,-174 2752.85,-174"/>
<text text-anchor="middle" x="2688.35" y="-158.3" font-family="Times,serif" font-size="14.00">output.aws_caller_info</text>
</g>
<!-- [root] output.aws_caller_info&#45;&gt;[root] data.aws_caller_identity.current (expand) -->
<g id="edge18" class="edge">
<title>[root] output.aws_caller_info&#45;&gt;[root] data.aws_caller_identity.current (expand)</title>
<path fill="none" stroke="black" d="M2734.59,-143.88C2760.88,-134.14 2794,-121.87 2821.71,-111.61"/>
<polygon fill="black" stroke="black" points="2823.11,-114.82 2831.27,-108.07 2820.68,-108.26 2823.11,-114.82"/>
</g>
<!-- [root] output.bucket_info -->
<g id="node10" class="node">
<title>[root] output.bucket_info</title>
<polygon fill="none" stroke="black" points="463.85,-180 350.85,-180 350.85,-144 469.85,-144 469.85,-174 463.85,-180"/>
<polyline fill="none" stroke="black" points="463.85,-180 463.85,-174"/>
<polyline fill="none" stroke="black" points="469.85,-174 463.85,-174"/>
<text text-anchor="middle" x="410.35" y="-158.3" font-family="Times,serif" font-size="14.00">output.bucket_info</text>
</g>
<!-- [root] output.bucket_info&#45;&gt;[root] aws_s3_bucket.simple_bucket (expand) -->
<g id="edge19" class="edge">
<title>[root] output.bucket_info&#45;&gt;[root] aws_s3_bucket.simple_bucket (expand)</title>
<path fill="none" stroke="black" d="M469.96,-158.79C560.86,-155.43 739.56,-148.94 891.35,-144 1530.83,-123.19 2299.5,-101.43 2571.75,-93.82"/>
<polygon fill="black" stroke="black" points="2572.11,-97.31 2582.01,-93.54 2571.91,-90.32 2572.11,-97.31"/>
</g>
<!-- [root] output.directive -->
<g id="node11" class="node">
<title>[root] output.directive</title>
<polygon fill="none" stroke="black" points="150.35,-324 54.35,-324 54.35,-288 156.35,-288 156.35,-318 150.35,-324"/>
<polyline fill="none" stroke="black" points="150.35,-324 150.35,-318"/>
<polyline fill="none" stroke="black" points="156.35,-318 150.35,-318"/>
<text text-anchor="middle" x="105.35" y="-302.3" font-family="Times,serif" font-size="14.00">output.directive</text>
</g>
<!-- [root] local.person (expand) -->
<g id="node27" class="node">
<title>[root] local.person (expand)</title>
<ellipse fill="none" stroke="black" cx="135.35" cy="-234" rx="109.68" ry="18"/>
<text text-anchor="middle" x="135.35" y="-230.3" font-family="Times,serif" font-size="14.00">[root] local.person (expand)</text>
</g>
<!-- [root] output.directive&#45;&gt;[root] local.person (expand) -->
<g id="edge20" class="edge">
<title>[root] output.directive&#45;&gt;[root] local.person (expand)</title>
<path fill="none" stroke="black" d="M112.77,-287.7C116.15,-279.81 120.22,-270.3 123.98,-261.55"/>
<polygon fill="black" stroke="black" points="127.3,-262.67 128.02,-252.1 120.87,-259.92 127.3,-262.67"/>
</g>
<!-- [root] output.heredoc -->
<g id="node12" class="node">
<title>[root] output.heredoc</title>
<polygon fill="none" stroke="black" points="552.35,-324 460.35,-324 460.35,-288 558.35,-288 558.35,-318 552.35,-324"/>
<polyline fill="none" stroke="black" points="552.35,-324 552.35,-318"/>
<polyline fill="none" stroke="black" points="558.35,-318 552.35,-318"/>
<text text-anchor="middle" x="509.35" y="-302.3" font-family="Times,serif" font-size="14.00">output.heredoc</text>
</g>
<!-- [root] local.a_ref (expand) -->
<g id="node15" class="node">
<title>[root] local.a_ref (expand)</title>
<ellipse fill="none" stroke="black" cx="1153.35" cy="-306" rx="104.78" ry="18"/>
<text text-anchor="middle" x="1153.35" y="-302.3" font-family="Times,serif" font-size="14.00">[root] local.a_ref (expand)</text>
</g>
<!-- [root] local.a_ref (expand)&#45;&gt;[root] data.null_data_source.example (expand) -->
<g id="edge10" class="edge">
<title>[root] local.a_ref (expand)&#45;&gt;[root] data.null_data_source.example (expand)</title>
<path fill="none" stroke="black" d="M1153.35,-287.7C1153.35,-279.98 1153.35,-270.71 1153.35,-262.11"/>
<polygon fill="black" stroke="black" points="1156.85,-262.1 1153.35,-252.1 1149.85,-262.1 1156.85,-262.1"/>
</g>
<!-- [root] local.another_local (expand) -->
<g id="node16" class="node">
<title>[root] local.another_local (expand)</title>
<ellipse fill="none" stroke="black" cx="308.35" cy="-306" rx="133.78" ry="18"/>
<text text-anchor="middle" x="308.35" y="-302.3" font-family="Times,serif" font-size="14.00">[root] local.another_local (expand)</text>
</g>
<!-- [root] local.a_local (expand) -->
<g id="node17" class="node">
<title>[root] local.a_local (expand)</title>
<ellipse fill="none" stroke="black" cx="375.35" cy="-234" rx="111.58" ry="18"/>
<text text-anchor="middle" x="375.35" y="-230.3" font-family="Times,serif" font-size="14.00">[root] local.a_local (expand)</text>
</g>
<!-- [root] local.another_local (expand)&#45;&gt;[root] local.a_local (expand) -->
<g id="edge11" class="edge">
<title>[root] local.another_local (expand)&#45;&gt;[root] local.a_local (expand)</title>
<path fill="none" stroke="black" d="M324.57,-288.05C332.76,-279.5 342.85,-268.96 351.87,-259.54"/>
<polygon fill="black" stroke="black" points="354.43,-261.92 358.82,-252.28 349.37,-257.08 354.43,-261.92"/>
</g>
<!-- [root] local.current_month (expand) -->
<g id="node18" class="node">
<title>[root] local.current_month (expand)</title>
<ellipse fill="none" stroke="black" cx="1914.35" cy="-306" rx="138.38" ry="18"/>
<text text-anchor="middle" x="1914.35" y="-302.3" font-family="Times,serif" font-size="14.00">[root] local.current_month (expand)</text>
</g>
<!-- [root] local.ts (expand) -->
<g id="node19" class="node">
<title>[root] local.ts (expand)</title>
<ellipse fill="none" stroke="black" cx="1775.35" cy="-234" rx="92.08" ry="18"/>
<text text-anchor="middle" x="1775.35" y="-230.3" font-family="Times,serif" font-size="14.00">[root] local.ts (expand)</text>
</g>
<!-- [root] local.current_month (expand)&#45;&gt;[root] local.ts (expand) -->
<g id="edge12" class="edge">
<title>[root] local.current_month (expand)&#45;&gt;[root] local.ts (expand)</title>
<path fill="none" stroke="black" d="M1881.41,-288.41C1861.92,-278.59 1837.06,-266.08 1816.31,-255.63"/>
<polygon fill="black" stroke="black" points="1817.61,-252.36 1807.1,-250.99 1814.46,-258.61 1817.61,-252.36"/>
</g>
<!-- [root] local.evens (expand) -->
<g id="node20" class="node">
<title>[root] local.evens (expand)</title>
<ellipse fill="none" stroke="black" cx="2177.35" cy="-306" rx="106.68" ry="18"/>
<text text-anchor="middle" x="2177.35" y="-302.3" font-family="Times,serif" font-size="14.00">[root] local.evens (expand)</text>
</g>
<!-- [root] local.n (expand) -->
<g id="node21" class="node">
<title>[root] local.n (expand)</title>
<ellipse fill="none" stroke="black" cx="2177.35" cy="-234" rx="90.98" ry="18"/>
<text text-anchor="middle" x="2177.35" y="-230.3" font-family="Times,serif" font-size="14.00">[root] local.n (expand)</text>
</g>
<!-- [root] local.evens (expand)&#45;&gt;[root] local.n (expand) -->
<g id="edge13" class="edge">
<title>[root] local.evens (expand)&#45;&gt;[root] local.n (expand)</title>
<path fill="none" stroke="black" d="M2177.35,-287.7C2177.35,-279.98 2177.35,-270.71 2177.35,-262.11"/>
<polygon fill="black" stroke="black" points="2180.85,-262.1 2177.35,-252.1 2173.85,-262.1 2180.85,-262.1"/>
</g>
<!-- [root] local.is_null (expand) -->
<g id="node22" class="node">
<title>[root] local.is_null (expand)</title>
<ellipse fill="none" stroke="black" cx="1386.35" cy="-306" rx="110.48" ry="18"/>
<text text-anchor="middle" x="1386.35" y="-302.3" font-family="Times,serif" font-size="14.00">[root] local.is_null (expand)</text>
</g>
<!-- [root] local.is_null (expand)&#45;&gt;[root] data.null_data_source.example (expand) -->
<g id="edge14" class="edge">
<title>[root] local.is_null (expand)&#45;&gt;[root] data.null_data_source.example (expand)</title>
<path fill="none" stroke="black" d="M1336.08,-289.9C1302.06,-279.68 1256.77,-266.07 1219.78,-254.96"/>
<polygon fill="black" stroke="black" points="1220.66,-251.57 1210.08,-252.04 1218.65,-258.27 1220.66,-251.57"/>
</g>
<!-- [root] local.tomorrow (expand) -->
<g id="node23" class="node">
<title>[root] local.tomorrow (expand)</title>
<ellipse fill="none" stroke="black" cx="1636.35" cy="-306" rx="121.58" ry="18"/>
<text text-anchor="middle" x="1636.35" y="-302.3" font-family="Times,serif" font-size="14.00">[root] local.tomorrow (expand)</text>
</g>
<!-- [root] local.tomorrow (expand)&#45;&gt;[root] local.ts (expand) -->
<g id="edge15" class="edge">
<title>[root] local.tomorrow (expand)&#45;&gt;[root] local.ts (expand)</title>
<path fill="none" stroke="black" d="M1668.94,-288.59C1688.51,-278.73 1713.59,-266.11 1734.48,-255.58"/>
<polygon fill="black" stroke="black" points="1736.09,-258.69 1743.45,-251.07 1732.94,-252.44 1736.09,-258.69"/>
</g>
<!-- [root] local.upper_list (expand) -->
<g id="node24" class="node">
<title>[root] local.upper_list (expand)</title>
<ellipse fill="none" stroke="black" cx="2694.35" cy="-306" rx="121.58" ry="18"/>
<text text-anchor="middle" x="2694.35" y="-302.3" font-family="Times,serif" font-size="14.00">[root] local.upper_list (expand)</text>
</g>
<!-- [root] local.l (expand) -->
<g id="node25" class="node">
<title>[root] local.l (expand)</title>
<ellipse fill="none" stroke="black" cx="2561.35" cy="-234" rx="89.08" ry="18"/>
<text text-anchor="middle" x="2561.35" y="-230.3" font-family="Times,serif" font-size="14.00">[root] local.l (expand)</text>
</g>
<!-- [root] local.upper_list (expand)&#45;&gt;[root] local.l (expand) -->
<g id="edge16" class="edge">
<title>[root] local.upper_list (expand)&#45;&gt;[root] local.l (expand)</title>
<path fill="none" stroke="black" d="M2663.17,-288.59C2644.53,-278.78 2620.67,-266.22 2600.73,-255.73"/>
<polygon fill="black" stroke="black" points="2602.36,-252.63 2591.88,-251.07 2599.1,-258.82 2602.36,-252.63"/>
</g>
<!-- [root] local.upper_map (expand) -->
<g id="node26" class="node">
<title>[root] local.upper_map (expand)</title>
<ellipse fill="none" stroke="black" cx="2428.35" cy="-306" rx="126.18" ry="18"/>
<text text-anchor="middle" x="2428.35" y="-302.3" font-family="Times,serif" font-size="14.00">[root] local.upper_map (expand)</text>
</g>
<!-- [root] local.upper_map (expand)&#45;&gt;[root] local.l (expand) -->
<g id="edge17" class="edge">
<title>[root] local.upper_map (expand)&#45;&gt;[root] local.l (expand)</title>
<path fill="none" stroke="black" d="M2459.87,-288.41C2478.44,-278.64 2502.09,-266.19 2521.89,-255.77"/>
<polygon fill="black" stroke="black" points="2523.76,-258.74 2530.98,-250.99 2520.5,-252.55 2523.76,-258.74"/>
</g>
<!-- [root] provider[&quot;registry.terraform.io/hashicorp/aws&quot;] (close) -->
<g id="node28" class="node">
<title>[root] provider[&quot;registry.terraform.io/hashicorp/aws&quot;] (close)</title>
<ellipse fill="none" stroke="black" cx="3099.35" cy="-306" rx="227.46" ry="18"/>
<text text-anchor="middle" x="3099.35" y="-302.3" font-family="Times,serif" font-size="14.00">[root] provider[&quot;registry.terraform.io/hashicorp/aws&quot;] (close)</text>
</g>
<!-- [root] provider[&quot;registry.terraform.io/hashicorp/aws&quot;] (close)&#45;&gt;[root] aws_s3_bucket.bucket_validated_conditions (orphan) -->
<g id="edge21" class="edge">
<title>[root] provider[&quot;registry.terraform.io/hashicorp/aws&quot;] (close)&#45;&gt;[root] aws_s3_bucket.bucket_validated_conditions (orphan)</title>
<path fill="none" stroke="black" d="M3124.27,-287.93C3153,-266.57 3198.67,-227.01 3217.35,-180 3223.26,-165.13 3225.54,-157.74 3217.35,-144 3209.39,-130.64 3196.77,-120.45 3183.19,-112.75"/>
<polygon fill="black" stroke="black" points="3184.66,-109.56 3174.17,-108.04 3181.42,-115.77 3184.66,-109.56"/>
</g>
<!-- [root] provider[&quot;registry.terraform.io/hashicorp/aws&quot;] (close)&#45;&gt;[root] aws_s3_bucket.chained_dependent_bucket (expand) -->
<g id="edge22" class="edge">
<title>[root] provider[&quot;registry.terraform.io/hashicorp/aws&quot;] (close)&#45;&gt;[root] aws_s3_bucket.chained_dependent_bucket (expand)</title>
<path fill="none" stroke="black" d="M3074.66,-288.05C3061.48,-279.01 3045.07,-267.74 3030.76,-257.93"/>
<polygon fill="black" stroke="black" points="3032.4,-254.8 3022.17,-252.03 3028.44,-260.58 3032.4,-254.8"/>
</g>
<!-- [root] provider[&quot;registry.terraform.io/hashicorp/aws&quot;] (close)&#45;&gt;[root] aws_s3_bucket.independent_bucket (expand) -->
<g id="edge23" class="edge">
<title>[root] provider[&quot;registry.terraform.io/hashicorp/aws&quot;] (close)&#45;&gt;[root] aws_s3_bucket.independent_bucket (expand)</title>
<path fill="none" stroke="black" d="M3112.92,-287.97C3119.91,-278.09 3127.72,-265.05 3131.35,-252 3135.65,-236.59 3135.32,-231.5 3131.35,-216 3128.97,-206.7 3124.59,-197.27 3119.93,-189"/>
<polygon fill="black" stroke="black" points="3122.81,-186.99 3114.66,-180.22 3116.81,-190.59 3122.81,-186.99"/>
</g>
<!-- [root] provider[&quot;registry.terraform.io/hashicorp/aws&quot;] (close)&#45;&gt;[root] data.aws_availability_zones.available (expand) -->
<g id="edge24" class="edge">
<title>[root] provider[&quot;registry.terraform.io/hashicorp/aws&quot;] (close)&#45;&gt;[root] data.aws_availability_zones.available (expand)</title>
<path fill="none" stroke="black" d="M3134.22,-288.11C3152.94,-278.47 3176.06,-265.61 3195.35,-252 3256.25,-209.05 3319.76,-148.72 3353.28,-115.44"/>
<polygon fill="black" stroke="black" points="3355.76,-117.92 3360.36,-108.37 3350.81,-112.96 3355.76,-117.92"/>
</g>
<!-- [root] provider[&quot;registry.terraform.io/hashicorp/null&quot;] (close) -->
<g id="node29" class="node">
<title>[root] provider[&quot;registry.terraform.io/hashicorp/null&quot;] (close)</title>
<ellipse fill="none" stroke="black" cx="803.35" cy="-306" rx="227.46" ry="18"/>
<text text-anchor="middle" x="803.35" y="-302.3" font-family="Times,serif" font-size="14.00">[root] provider[&quot;registry.terraform.io/hashicorp/null&quot;] (close)</text>
</g>
<!-- [root] provider[&quot;registry.terraform.io/hashicorp/null&quot;] (close)&#45;&gt;[root] data.null_data_source.example (expand) -->
<g id="edge25" class="edge">
<title>[root] provider[&quot;registry.terraform.io/hashicorp/null&quot;] (close)&#45;&gt;[root] data.null_data_source.example (expand)</title>
<path fill="none" stroke="black" d="M882.77,-289.12C934.8,-278.71 1003.08,-265.05 1058.03,-254.06"/>
<polygon fill="black" stroke="black" points="1059.01,-257.44 1068.13,-252.04 1057.64,-250.57 1059.01,-257.44"/>
</g>
<!-- [root] root -->
<g id="node30" class="node">
<title>[root] root</title>
<ellipse fill="none" stroke="black" cx="4324.35" cy="-378" rx="47.39" ry="18"/>
<text text-anchor="middle" x="4324.35" y="-374.3" font-family="Times,serif" font-size="14.00">[root] root</text>
</g>
<!-- [root] root&#45;&gt;[root] output.aws_caller_info -->
<g id="edge56" class="edge">
<title>[root] root&#45;&gt;[root] output.aws_caller_info</title>
<path fill="none" stroke="black" d="M4276.69,-377.26C4039.88,-378.3 2996.02,-379.67 2863.35,-324 2841.9,-315 2842.39,-303.84 2825.35,-288 2787.37,-252.68 2742.94,-212.31 2715.21,-187.24"/>
<polygon fill="black" stroke="black" points="2717.28,-184.39 2707.52,-180.28 2712.59,-189.58 2717.28,-184.39"/>
</g>
<!-- [root] root&#45;&gt;[root] output.bucket_info -->
<g id="edge57" class="edge">
<title>[root] root&#45;&gt;[root] output.bucket_info</title>
<path fill="none" stroke="black" d="M4276.84,-376.77C3811.94,-374.52 91.34,-355.47 45.35,-324 4.34,-295.93 -16.36,-253.41 16.35,-216 37.34,-192 233.32,-175.03 340.73,-167.45"/>
<polygon fill="black" stroke="black" points="341.1,-170.93 350.83,-166.75 340.62,-163.95 341.1,-170.93"/>
</g>
<!-- [root] root&#45;&gt;[root] output.directive -->
<g id="edge58" class="edge">
<title>[root] root&#45;&gt;[root] output.directive</title>
<path fill="none" stroke="black" d="M4276.72,-376.75C3835.16,-374.41 466.29,-355.58 166.57,-323.7"/>
<polygon fill="black" stroke="black" points="166.9,-320.21 156.55,-322.46 166.04,-327.16 166.9,-320.21"/>
</g>
<!-- [root] root&#45;&gt;[root] output.heredoc -->
<g id="edge59" class="edge">
<title>[root] root&#45;&gt;[root] output.heredoc</title>
<path fill="none" stroke="black" d="M4276.94,-377.11C3871.86,-377.94 997.99,-381.79 568.49,-323.82"/>
<polygon fill="black" stroke="black" points="568.9,-320.34 558.51,-322.39 567.91,-327.27 568.9,-320.34"/>
</g>
<!-- [root] root&#45;&gt;[root] local.a_ref (expand) -->
<g id="edge30" class="edge">
<title>[root] root&#45;&gt;[root] local.a_ref (expand)</title>
<path fill="none" stroke="black" d="M4276.95,-377.03C3938.8,-377.11 1887.93,-375.43 1267.35,-324 1256.82,-323.13 1245.78,-321.89 1234.89,-320.48"/>
<polygon fill="black" stroke="black" points="1235.32,-317 1224.95,-319.14 1234.39,-323.94 1235.32,-317"/>
</g>
<!-- [root] root&#45;&gt;[root] local.another_local (expand) -->
<g id="edge32" class="edge">
<title>[root] root&#45;&gt;[root] local.another_local (expand)</title>
<path fill="none" stroke="black" d="M4276.96,-377.04C3890.21,-377.23 1246.69,-376.57 451.35,-324 437.8,-323.1 423.57,-321.82 409.54,-320.36"/>
<polygon fill="black" stroke="black" points="409.7,-316.86 399.38,-319.27 408.95,-323.82 409.7,-316.86"/>
</g>
<!-- [root] root&#45;&gt;[root] local.current_month (expand) -->
<g id="edge33" class="edge">
<title>[root] root&#45;&gt;[root] local.current_month (expand)</title>
<path fill="none" stroke="black" d="M4276.78,-376.48C3992.38,-373.29 2514.17,-355.42 2061.35,-324 2047.64,-323.05 2033.23,-321.75 2019.03,-320.3"/>
<polygon fill="black" stroke="black" points="2019.04,-316.78 2008.73,-319.21 2018.31,-323.74 2019.04,-316.78"/>
</g>
<!-- [root] root&#45;&gt;[root] local.evens (expand) -->
<g id="edge35" class="edge">
<title>[root] root&#45;&gt;[root] local.evens (expand)</title>
<path fill="none" stroke="black" d="M4276.97,-376.53C4010.55,-373.79 2696.83,-358.71 2293.35,-324 2282.8,-323.09 2271.73,-321.85 2260.81,-320.45"/>
<polygon fill="black" stroke="black" points="2261.21,-316.97 2250.84,-319.12 2260.29,-323.91 2261.21,-316.97"/>
</g>
<!-- [root] root&#45;&gt;[root] local.is_null (expand) -->
<g id="edge41" class="edge">
<title>[root] root&#45;&gt;[root] local.is_null (expand)</title>
<path fill="none" stroke="black" d="M4276.83,-376.91C3953.75,-376.17 2075.45,-369.91 1505.35,-324 1494.52,-323.13 1483.18,-321.91 1471.97,-320.52"/>
<polygon fill="black" stroke="black" points="1472.1,-317 1461.74,-319.2 1471.21,-323.95 1472.1,-317"/>
</g>
<!-- [root] root&#45;&gt;[root] local.tomorrow (expand) -->
<g id="edge49" class="edge">
<title>[root] root&#45;&gt;[root] local.tomorrow (expand)</title>
<path fill="none" stroke="black" d="M4276.68,-376.72C3970.95,-374.81 2282.08,-362.62 1767.35,-324 1755.08,-323.08 1742.2,-321.8 1729.5,-320.35"/>
<polygon fill="black" stroke="black" points="1729.72,-316.85 1719.37,-319.15 1728.89,-323.8 1729.72,-316.85"/>
</g>
<!-- [root] root&#45;&gt;[root] local.upper_list (expand) -->
<g id="edge53" class="edge">
<title>[root] root&#45;&gt;[root] local.upper_list (expand)</title>
<path fill="none" stroke="black" d="M4276.85,-376.85C4091.42,-375.94 3398.54,-369.5 2830.35,-324 2817.31,-322.96 2803.6,-321.58 2790.1,-320.05"/>
<polygon fill="black" stroke="black" points="2790.18,-316.54 2779.84,-318.86 2789.37,-323.49 2790.18,-316.54"/>
</g>
<!-- [root] root&#45;&gt;[root] local.upper_map (expand) -->
<g id="edge54" class="edge">
<title>[root] root&#45;&gt;[root] local.upper_map (expand)</title>
<path fill="none" stroke="black" d="M4276.63,-377.23C4071.2,-377.86 3241.86,-376.81 2563.35,-324 2550.99,-323.04 2538.03,-321.76 2525.23,-320.33"/>
<polygon fill="black" stroke="black" points="2525.35,-316.82 2515.01,-319.15 2524.55,-323.77 2525.35,-316.82"/>
</g>
<!-- [root] root&#45;&gt;[root] provider[&quot;registry.terraform.io/hashicorp/aws&quot;] (close) -->
<g id="edge60" class="edge">
<title>[root] root&#45;&gt;[root] provider[&quot;registry.terraform.io/hashicorp/aws&quot;] (close)</title>
<path fill="none" stroke="black" d="M4277.54,-374.79C4135.74,-368.03 3698.52,-346.7 3336.35,-324 3314.57,-322.63 3291.66,-321.11 3269.03,-319.54"/>
<polygon fill="black" stroke="black" points="3269.22,-316.05 3259,-318.85 3268.73,-323.03 3269.22,-316.05"/>
</g>
<!-- [root] root&#45;&gt;[root] provider[&quot;registry.terraform.io/hashicorp/null&quot;] (close) -->
<g id="edge61" class="edge">
<title>[root] root&#45;&gt;[root] provider[&quot;registry.terraform.io/hashicorp/null&quot;] (close)</title>
<path fill="none" stroke="black" d="M4276.58,-377.23C3979.92,-378.46 2359.23,-382.14 1039.35,-324 1015.91,-322.97 991.17,-321.55 966.89,-319.97"/>
<polygon fill="black" stroke="black" points="967.1,-316.47 956.89,-319.31 966.64,-323.46 967.1,-316.47"/>
</g>
<!-- [root] local.a_boolean (expand) -->
<g id="node31" class="node">
<title>[root] local.a_boolean (expand)</title>
<ellipse fill="none" stroke="black" cx="3467.35" cy="-306" rx="122.38" ry="18"/>
<text text-anchor="middle" x="3467.35" y="-302.3" font-family="Times,serif" font-size="14.00">[root] local.a_boolean (expand)</text>
</g>
<!-- [root] root&#45;&gt;[root] local.a_boolean (expand) -->
<g id="edge26" class="edge">
<title>[root] root&#45;&gt;[root] local.a_boolean (expand)</title>
<path fill="none" stroke="black" d="M4277.56,-374.5C4162.06,-368.12 3854.22,-349.92 3598.35,-324 3587.06,-322.86 3575.23,-321.52 3563.51,-320.11"/>
<polygon fill="black" stroke="black" points="3563.59,-316.59 3553.24,-318.85 3562.74,-323.54 3563.59,-316.59"/>
</g>
<!-- [root] local.a_list (expand) -->
<g id="node32" class="node">
<title>[root] local.a_list (expand)</title>
<ellipse fill="none" stroke="black" cx="3712.35" cy="-306" rx="105.08" ry="18"/>
<text text-anchor="middle" x="3712.35" y="-302.3" font-family="Times,serif" font-size="14.00">[root] local.a_list (expand)</text>
</g>
<!-- [root] root&#45;&gt;[root] local.a_list (expand) -->
<g id="edge27" class="edge">
<title>[root] root&#45;&gt;[root] local.a_list (expand)</title>
<path fill="none" stroke="black" d="M4278.71,-372.76C4191.09,-364.47 3993.27,-345.1 3827.35,-324 3817.74,-322.78 3807.69,-321.42 3797.71,-320.01"/>
<polygon fill="black" stroke="black" points="3798.16,-316.54 3787.76,-318.59 3797.17,-323.47 3798.16,-316.54"/>
</g>
<!-- [root] local.a_map (expand) -->
<g id="node33" class="node">
<title>[root] local.a_map (expand)</title>
<ellipse fill="none" stroke="black" cx="3946.35" cy="-306" rx="110.48" ry="18"/>
<text text-anchor="middle" x="3946.35" y="-302.3" font-family="Times,serif" font-size="14.00">[root] local.a_map (expand)</text>
</g>
<!-- [root] root&#45;&gt;[root] local.a_map (expand) -->
<g id="edge28" class="edge">
<title>[root] root&#45;&gt;[root] local.a_map (expand)</title>
<path fill="none" stroke="black" d="M4282.46,-369.24C4220.92,-357.85 4104.94,-336.37 4026.66,-321.87"/>
<polygon fill="black" stroke="black" points="4026.82,-318.34 4016.35,-319.96 4025.54,-325.22 4026.82,-318.34"/>
</g>
<!-- [root] local.a_number (expand) -->
<g id="node34" class="node">
<title>[root] local.a_number (expand)</title>
<ellipse fill="none" stroke="black" cx="4197.35" cy="-306" rx="122.38" ry="18"/>
<text text-anchor="middle" x="4197.35" y="-302.3" font-family="Times,serif" font-size="14.00">[root] local.a_number (expand)</text>
</g>
<!-- [root] root&#45;&gt;[root] local.a_number (expand) -->
<g id="edge29" class="edge">
<title>[root] root&#45;&gt;[root] local.a_number (expand)</title>
<path fill="none" stroke="black" d="M4298.65,-362.83C4280.8,-353 4256.69,-339.7 4236.46,-328.56"/>
<polygon fill="black" stroke="black" points="4237.93,-325.37 4227.48,-323.61 4234.55,-331.5 4237.93,-325.37"/>
</g>
<!-- [root] local.a_string (expand) -->
<g id="node35" class="node">
<title>[root] local.a_string (expand)</title>
<ellipse fill="none" stroke="black" cx="4452.35" cy="-306" rx="114.28" ry="18"/>
<text text-anchor="middle" x="4452.35" y="-302.3" font-family="Times,serif" font-size="14.00">[root] local.a_string (expand)</text>
</g>
<!-- [root] root&#45;&gt;[root] local.a_string (expand) -->
<g id="edge31" class="edge">
<title>[root] root&#45;&gt;[root] local.a_string (expand)</title>
<path fill="none" stroke="black" d="M4350.26,-362.83C4368.33,-352.95 4392.77,-339.58 4413.21,-328.41"/>
<polygon fill="black" stroke="black" points="4414.89,-331.47 4421.99,-323.61 4411.54,-325.33 4414.89,-331.47"/>
</g>
<!-- [root] local.eq (expand) -->
<g id="node36" class="node">
<title>[root] local.eq (expand)</title>
<ellipse fill="none" stroke="black" cx="4679.35" cy="-306" rx="94.78" ry="18"/>
<text text-anchor="middle" x="4679.35" y="-302.3" font-family="Times,serif" font-size="14.00">[root] local.eq (expand)</text>
</g>
<!-- [root] root&#45;&gt;[root] local.eq (expand) -->
<g id="edge34" class="edge">
<title>[root] root&#45;&gt;[root] local.eq (expand)</title>
<path fill="none" stroke="black" d="M4365.42,-368.9C4424.17,-357.32 4533.11,-335.84 4605.93,-321.48"/>
<polygon fill="black" stroke="black" points="4606.82,-324.87 4615.96,-319.5 4605.47,-318 4606.82,-324.87"/>
</g>
<!-- [root] local.f (expand) -->
<g id="node37" class="node">
<title>[root] local.f (expand)</title>
<ellipse fill="none" stroke="black" cx="4881.35" cy="-306" rx="89.08" ry="18"/>
<text text-anchor="middle" x="4881.35" y="-302.3" font-family="Times,serif" font-size="14.00">[root] local.f (expand)</text>
</g>
<!-- [root] root&#45;&gt;[root] local.f (expand) -->
<g id="edge36" class="edge">
<title>[root] root&#45;&gt;[root] local.f (expand)</title>
<path fill="none" stroke="black" d="M4369.74,-372.62C4452.26,-364.47 4632.31,-345.8 4783.35,-324 4791.25,-322.86 4799.49,-321.58 4807.69,-320.24"/>
<polygon fill="black" stroke="black" points="4808.36,-323.68 4817.65,-318.59 4807.21,-316.77 4808.36,-323.68"/>
</g>
<!-- [root] local.formatted (expand) -->
<g id="node38" class="node">
<title>[root] local.formatted (expand)</title>
<ellipse fill="none" stroke="black" cx="5109.35" cy="-306" rx="120.78" ry="18"/>
<text text-anchor="middle" x="5109.35" y="-302.3" font-family="Times,serif" font-size="14.00">[root] local.formatted (expand)</text>
</g>
<!-- [root] root&#45;&gt;[root] local.formatted (expand) -->
<g id="edge37" class="edge">
<title>[root] root&#45;&gt;[root] local.formatted (expand)</title>
<path fill="none" stroke="black" d="M4370.88,-374.03C4478.26,-366.99 4751.59,-348.09 4979.35,-324 4990.47,-322.82 5002.11,-321.47 5013.65,-320.06"/>
<polygon fill="black" stroke="black" points="5014.27,-323.51 5023.76,-318.8 5013.41,-316.56 5014.27,-323.51"/>
</g>
<!-- [root] local.formatted_list (expand) -->
<g id="node39" class="node">
<title>[root] local.formatted_list (expand)</title>
<ellipse fill="none" stroke="black" cx="5384.35" cy="-306" rx="135.68" ry="18"/>
<text text-anchor="middle" x="5384.35" y="-302.3" font-family="Times,serif" font-size="14.00">[root] local.formatted_list (expand)</text>
</g>
<!-- [root] root&#45;&gt;[root] local.formatted_list (expand) -->
<g id="edge38" class="edge">
<title>[root] root&#45;&gt;[root] local.formatted_list (expand)</title>
<path fill="none" stroke="black" d="M4371.57,-375.25C4506.88,-370.01 4907.66,-353.03 5239.35,-324 5252.33,-322.86 5265.94,-321.5 5279.41,-320.04"/>
<polygon fill="black" stroke="black" points="5280.11,-323.49 5289.67,-318.91 5279.35,-316.53 5280.11,-323.49"/>
</g>
<!-- [root] local.gt (expand) -->
<g id="node40" class="node">
<title>[root] local.gt (expand)</title>
<ellipse fill="none" stroke="black" cx="5631.35" cy="-306" rx="92.88" ry="18"/>
<text text-anchor="middle" x="5631.35" y="-302.3" font-family="Times,serif" font-size="14.00">[root] local.gt (expand)</text>
</g>
<!-- [root] root&#45;&gt;[root] local.gt (expand) -->
<g id="edge39" class="edge">
<title>[root] root&#45;&gt;[root] local.gt (expand)</title>
<path fill="none" stroke="black" d="M4371.87,-376.98C4534.09,-376.45 5080.81,-371.07 5529.35,-324 5538.27,-323.06 5547.59,-321.85 5556.81,-320.49"/>
<polygon fill="black" stroke="black" points="5557.4,-323.94 5566.76,-318.98 5556.35,-317.02 5557.4,-323.94"/>
</g>
<!-- [root] local.gte (expand) -->
<g id="node41" class="node">
<title>[root] local.gte (expand)</title>
<ellipse fill="none" stroke="black" cx="5839.35" cy="-306" rx="96.68" ry="18"/>
<text text-anchor="middle" x="5839.35" y="-302.3" font-family="Times,serif" font-size="14.00">[root] local.gte (expand)</text>
</g>
<!-- [root] root&#45;&gt;[root] local.gte (expand) -->
<g id="edge40" class="edge">
<title>[root] root&#45;&gt;[root] local.gte (expand)</title>
<path fill="none" stroke="black" d="M4371.93,-377.3C4550.97,-377.99 5201.07,-376.5 5733.35,-324 5742.71,-323.08 5752.5,-321.86 5762.19,-320.49"/>
<polygon fill="black" stroke="black" points="5762.83,-323.94 5772.22,-319.03 5761.82,-317.01 5762.83,-323.94"/>
</g>
<!-- [root] local.lcase (expand) -->
<g id="node42" class="node">
<title>[root] local.lcase (expand)</title>
<ellipse fill="none" stroke="black" cx="6058.35" cy="-306" rx="103.98" ry="18"/>
<text text-anchor="middle" x="6058.35" y="-302.3" font-family="Times,serif" font-size="14.00">[root] local.lcase (expand)</text>
</g>
<!-- [root] root&#45;&gt;[root] local.lcase (expand) -->
<g id="edge42" class="edge">
<title>[root] root&#45;&gt;[root] local.lcase (expand)</title>
<path fill="none" stroke="black" d="M4371.89,-377.47C4566.99,-378.96 5325.3,-380.58 5945.35,-324 5955.46,-323.08 5966.04,-321.85 5976.5,-320.46"/>
<polygon fill="black" stroke="black" points="5977.04,-323.92 5986.47,-319.1 5976.09,-316.99 5977.04,-323.92"/>
</g>
<!-- [root] local.lt (expand) -->
<g id="node43" class="node">
<title>[root] local.lt (expand)</title>
<ellipse fill="none" stroke="black" cx="6271.35" cy="-306" rx="90.98" ry="18"/>
<text text-anchor="middle" x="6271.35" y="-302.3" font-family="Times,serif" font-size="14.00">[root] local.lt (expand)</text>
</g>
<!-- [root] root&#45;&gt;[root] local.lt (expand) -->
<g id="edge43" class="edge">
<title>[root] root&#45;&gt;[root] local.lt (expand)</title>
<path fill="none" stroke="black" d="M4371.91,-376.54C4624.09,-373.94 5807.03,-360.02 6171.35,-324 6180.23,-323.12 6189.52,-321.93 6198.69,-320.57"/>
<polygon fill="black" stroke="black" points="6199.24,-324.03 6208.59,-319.05 6198.17,-317.11 6199.24,-324.03"/>
</g>
<!-- [root] local.lte (expand) -->
<g id="node44" class="node">
<title>[root] local.lte (expand)</title>
<ellipse fill="none" stroke="black" cx="6475.35" cy="-306" rx="94.78" ry="18"/>
<text text-anchor="middle" x="6475.35" y="-302.3" font-family="Times,serif" font-size="14.00">[root] local.lte (expand)</text>
</g>
<!-- [root] root&#45;&gt;[root] local.lte (expand) -->
<g id="edge44" class="edge">
<title>[root] root&#45;&gt;[root] local.lte (expand)</title>
<path fill="none" stroke="black" d="M4371.68,-376.65C4639.24,-374.55 5964.77,-362.31 6371.35,-324 6380.68,-323.12 6390.44,-321.91 6400.08,-320.54"/>
<polygon fill="black" stroke="black" points="6400.69,-323.99 6410.06,-319.06 6399.66,-317.07 6400.69,-323.99"/>
</g>
<!-- [root] local.neq (expand) -->
<g id="node45" class="node">
<title>[root] local.neq (expand)</title>
<ellipse fill="none" stroke="black" cx="6687.35" cy="-306" rx="98.58" ry="18"/>
<text text-anchor="middle" x="6687.35" y="-302.3" font-family="Times,serif" font-size="14.00">[root] local.neq (expand)</text>
</g>
<!-- [root] root&#45;&gt;[root] local.neq (expand) -->
<g id="edge45" class="edge">
<title>[root] root&#45;&gt;[root] local.neq (expand)</title>
<path fill="none" stroke="black" d="M4371.78,-376.74C4655.29,-375.08 6128.88,-364.57 6579.35,-324 6589.07,-323.13 6599.23,-321.92 6609.27,-320.54"/>
<polygon fill="black" stroke="black" points="6609.85,-324 6619.25,-319.12 6608.86,-317.07 6609.85,-324"/>
</g>
<!-- [root] local.one (expand) -->
<g id="node46" class="node">
<title>[root] local.one (expand)</title>
<ellipse fill="none" stroke="black" cx="6903.35" cy="-306" rx="98.58" ry="18"/>
<text text-anchor="middle" x="6903.35" y="-302.3" font-family="Times,serif" font-size="14.00">[root] local.one (expand)</text>
</g>
<!-- [root] root&#45;&gt;[root] local.one (expand) -->
<g id="edge46" class="edge">
<title>[root] root&#45;&gt;[root] local.one (expand)</title>
<path fill="none" stroke="black" d="M4371.88,-376.86C4671.23,-375.81 6299.3,-368.16 6795.35,-324 6805.14,-323.13 6815.38,-321.92 6825.49,-320.53"/>
<polygon fill="black" stroke="black" points="6826.14,-323.98 6835.54,-319.1 6825.15,-317.05 6826.14,-323.98"/>
</g>
<!-- [root] local.t (expand) -->
<g id="node47" class="node">
<title>[root] local.t (expand)</title>
<ellipse fill="none" stroke="black" cx="7109.35" cy="-306" rx="89.08" ry="18"/>
<text text-anchor="middle" x="7109.35" y="-302.3" font-family="Times,serif" font-size="14.00">[root] local.t (expand)</text>
</g>
<!-- [root] root&#45;&gt;[root] local.t (expand) -->
<g id="edge47" class="edge">
<title>[root] root&#45;&gt;[root] local.t (expand)</title>
<path fill="none" stroke="black" d="M4371.91,-377.05C4686.35,-377.24 6469.98,-375.99 7011.35,-324 7020.03,-323.17 7029.1,-322 7038.07,-320.67"/>
<polygon fill="black" stroke="black" points="7038.78,-324.1 7048.12,-319.09 7037.7,-317.18 7038.78,-324.1"/>
</g>
<!-- [root] local.three (expand) -->
<g id="node48" class="node">
<title>[root] local.three (expand)</title>
<ellipse fill="none" stroke="black" cx="7320.35" cy="-306" rx="103.98" ry="18"/>
<text text-anchor="middle" x="7320.35" y="-302.3" font-family="Times,serif" font-size="14.00">[root] local.three (expand)</text>
</g>
<!-- [root] root&#45;&gt;[root] local.three (expand) -->
<g id="edge48" class="edge">
<title>[root] root&#45;&gt;[root] local.three (expand)</title>
<path fill="none" stroke="black" d="M4371.9,-376.98C4699.29,-376.71 6623.86,-373.04 7207.35,-324 7217.62,-323.14 7228.36,-321.93 7238.97,-320.54"/>
<polygon fill="black" stroke="black" points="7239.65,-323.98 7249.09,-319.17 7238.71,-317.05 7239.65,-323.98"/>
</g>
<!-- [root] local.trimmed (expand) -->
<g id="node49" class="node">
<title>[root] local.trimmed (expand)</title>
<ellipse fill="none" stroke="black" cx="7559.35" cy="-306" rx="116.98" ry="18"/>
<text text-anchor="middle" x="7559.35" y="-302.3" font-family="Times,serif" font-size="14.00">[root] local.trimmed (expand)</text>
</g>
<!-- [root] root&#45;&gt;[root] local.trimmed (expand) -->
<g id="edge50" class="edge">
<title>[root] root&#45;&gt;[root] local.trimmed (expand)</title>
<path fill="none" stroke="black" d="M4371.73,-376.95C4713.07,-376.51 6801.36,-371.86 7433.35,-324 7445.05,-323.11 7457.31,-321.86 7469.41,-320.44"/>
<polygon fill="black" stroke="black" points="7470.01,-323.89 7479.52,-319.21 7469.17,-316.94 7470.01,-323.89"/>
</g>
<!-- [root] local.two (expand) -->
<g id="node50" class="node">
<title>[root] local.two (expand)</title>
<ellipse fill="none" stroke="black" cx="7793.35" cy="-306" rx="99.38" ry="18"/>
<text text-anchor="middle" x="7793.35" y="-302.3" font-family="Times,serif" font-size="14.00">[root] local.two (expand)</text>
</g>
<!-- [root] root&#45;&gt;[root] local.two (expand) -->
<g id="edge51" class="edge">
<title>[root] root&#45;&gt;[root] local.two (expand)</title>
<path fill="none" stroke="black" d="M4371.82,-377.17C4729.03,-378.29 7000.36,-383.02 7685.35,-324 7695.07,-323.16 7705.23,-321.98 7715.28,-320.62"/>
<polygon fill="black" stroke="black" points="7715.85,-324.07 7725.26,-319.2 7714.87,-317.14 7715.85,-324.07"/>
</g>
<!-- [root] local.ucase (expand) -->
<g id="node51" class="node">
<title>[root] local.ucase (expand)</title>
<ellipse fill="none" stroke="black" cx="8016.35" cy="-306" rx="105.88" ry="18"/>
<text text-anchor="middle" x="8016.35" y="-302.3" font-family="Times,serif" font-size="14.00">[root] local.ucase (expand)</text>
</g>
<!-- [root] root&#45;&gt;[root] local.ucase (expand) -->
<g id="edge52" class="edge">
<title>[root] root&#45;&gt;[root] local.ucase (expand)</title>
<path fill="none" stroke="black" d="M4371.88,-377.16C4742.15,-378.27 7170.1,-383.21 7901.35,-324 7911.9,-323.15 7922.96,-321.93 7933.87,-320.53"/>
<polygon fill="black" stroke="black" points="7934.37,-323.99 7943.82,-319.2 7933.45,-317.06 7934.37,-323.99"/>
</g>
<!-- [root] local.zero (expand) -->
<g id="node52" class="node">
<title>[root] local.zero (expand)</title>
<ellipse fill="none" stroke="black" cx="8241.35" cy="-306" rx="101.28" ry="18"/>
<text text-anchor="middle" x="8241.35" y="-302.3" font-family="Times,serif" font-size="14.00">[root] local.zero (expand)</text>
</g>
<!-- [root] root&#45;&gt;[root] local.zero (expand) -->
<g id="edge55" class="edge">
<title>[root] root&#45;&gt;[root] local.zero (expand)</title>
<path fill="none" stroke="black" d="M4371.71,-376.74C4782.67,-374.45 7739.23,-356.87 8131.35,-324 8141.25,-323.17 8151.6,-321.99 8161.83,-320.63"/>
<polygon fill="black" stroke="black" points="8162.57,-324.06 8171.99,-319.22 8161.61,-317.13 8162.57,-324.06"/>
</g>
</g>
</svg>
